<?xml version="1.0" encoding="utf-8"?>
<!-- Generator: Adobe Illustrator 24.0.2, SVG Export Plug-In . SVG Version: 6.00 Build 0)  -->
<svg version="1.1" id="Capa_1" xmlns="http://www.w3.org/2000/svg" xmlns:xlink="http://www.w3.org/1999/xlink" x="0px" y="0px"
	 viewBox="0 0 283.46 283.46" style="enable-background:new 0 0 283.46 283.46;" xml:space="preserve">
<style type="text/css">
	.st0{fill:#FFFFFF;}
</style>
<g>
	<path class="st0" d="M81.71,239.17c-19.9,0-40.21,0.09-60.52-0.07c-4.67-0.04-7.44-3.03-7.45-7.7
		c-0.06-26.15-0.28-52.31,0.16-78.46c0.24-14.22,7.99-27.87,19.58-37.07c18.53,19.02,40.15,23.16,63.43,13.16
		c0.49,8.06,1.08,16.37,1.4,24.69c0.05,1.24-0.86,2.78-1.77,3.77c-10.61,11.48-15.28,25.01-14.9,40.6
		C81.97,211.55,81.71,225.02,81.71,239.17z"/>
	<path class="st0" d="M185.63,128.67c23.93,10.27,45.42,6.34,64.36-12.91c12.05,9.94,19.18,22.61,19.52,38.14
		c0.56,25.64,0.22,51.31,0.17,76.96c-0.01,5.09-2.6,8.19-7.43,8.23c-20.31,0.17-40.62,0.07-60.56,0.07
		c0-14.53-0.12-28.78,0.03-43.02c0.16-14.5-4.47-27.14-14.25-37.8c-1.98-2.16-2.26-4.05-2.03-7.01
		C186.02,143.84,185.63,136.27,185.63,128.67z"/>
	<path class="st0" d="M106.07,169.7c19.62,22.56,51.44,22.68,71.26-0.03c5.98,6.57,9.11,14.28,9.29,23
		c0.26,12.66,0.14,25.32,0.06,37.98c-0.03,5.55-2.72,8.49-8.21,8.52c-24.49,0.11-48.98,0.11-73.47,0c-5.53-0.02-8.25-2.94-8.29-8.45
		c-0.08-12.83-0.23-25.66,0.08-38.48C97.02,183.7,100.15,176.1,106.07,169.7z"/>
	<path class="st0" d="M74.42,44.23c20.86,0.53,37.28,17.59,36.75,38.18c-0.54,20.87-17.59,37.29-38.18,36.76
		c-20.86-0.54-37.27-17.58-36.75-38.18C36.75,60.15,53.83,43.71,74.42,44.23z"/>
	<path class="st0" d="M208.96,119.17c-20.87-0.56-37.26-17.61-36.73-38.21c0.54-20.85,17.63-37.27,38.21-36.73
		c20.87,0.55,37.27,17.62,36.73,38.21C246.61,103.32,229.55,119.72,208.96,119.17z"/>
	<path class="st0" d="M171.71,141.61c0.05,16.42-13.27,29.95-29.66,30.1c-16.65,0.16-30.32-13.32-30.35-29.91
		c-0.03-16.45,13.28-29.95,29.66-30.1C158.03,111.55,171.65,124.98,171.71,141.61z"/>
</g>
</svg>
