<?xml version="1.0" encoding="utf-8"?>
<!-- Generator: Adobe Illustrator 24.0.2, SVG Export Plug-In . SVG Version: 6.00 Build 0)  -->
<svg version="1.1" id="Capa_1" xmlns="http://www.w3.org/2000/svg" xmlns:xlink="http://www.w3.org/1999/xlink" x="0px" y="0px"
	 viewBox="0 0 283.46 283.46" style="enable-background:new 0 0 283.46 283.46;" xml:space="preserve">
<style type="text/css">
	.st0{fill:#FFFFFF;}
</style>
<path class="st0" d="M141.88,4.21c75.82-0.05,137.79,61.68,137.77,137.25c-0.02,76.36-61.68,137.78-138.33,137.79
	C65.59,279.26,3.82,217.48,3.8,141.72C3.79,65.77,65.56,4.26,141.88,4.21z M150.4,213.79c0-15.69-0.08-30.87,0.05-46.05
	c0.04-4.27,0.34-8.61,1.16-12.79c1.53-7.78,6.55-12.38,13.62-13.22c11.36-1.34,18.04,3.78,18.46,15.47
	c0.61,16.62,0.4,33.28,0.53,49.92c0.02,2.11,0,4.21,0,6.57c10.23,0,19.82,0,29.67,0c0.12-1.15,0.3-2.01,0.3-2.86
	c-0.07-19.69,0-39.38-0.34-59.06c-0.09-4.95-1.03-10-2.38-14.78c-3.37-11.97-11.36-19.04-23.8-21.15
	c-15.11-2.57-28.03,0.75-38.45,14.83c0-5.29,0-9.07,0-12.83c-9.92,0-19.15,0-28.43,0c0,32.2,0,63.96,0,95.95
	C130.66,213.79,140.14,213.79,150.4,213.79z M101.26,213.73c0-32.4,0-64.13,0-95.96c-10.04,0-19.64,0-29.35,0
	c0,32.13,0,63.91,0,95.96C81.81,213.73,91.4,213.73,101.26,213.73z M86.39,104.19c9.67,0.02,17.52-7.68,17.59-17.28
	c0.07-9.59-7.71-17.37-17.39-17.41c-9.8-0.04-17.47,7.5-17.53,17.23C68.99,96.37,76.72,104.16,86.39,104.19z"/>
</svg>
