<svg id="Capa_1" data-name="Capa 1" xmlns="http://www.w3.org/2000/svg" xmlns:xlink="http://www.w3.org/1999/xlink" viewBox="0 0 369 370"><defs><style>.cls-1{fill:#206ce5;}.cls-2{fill:url(#Degradado_sin_nombre_5);}.cls-3{fill:#eec144;}.cls-4{fill:#f60;}.cls-5{fill:#fff;}</style><linearGradient id="Degradado_sin_nombre_5" x1="110.2" y1="243.41" x2="369" y2="243.41" gradientUnits="userSpaceOnUse"><stop offset="0" stop-color="#fff"/><stop offset="0" stop-color="#0530cf"/><stop offset="1" stop-color="#1b62e1"/></linearGradient></defs><title>logo-memo</title><rect class="cls-1" width="369" height="370"/><polyline class="cls-2" points="369 370 235.33 370 110.2 278.22 279.9 116.81 369 206.92 369 370"/><rect class="cls-3" x="88.12" y="88.62" width="192.76" height="192.76" rx="34.02"/><path class="cls-4" d="M88.12,216.52l23.17,5.71c39.76-8,44.92-16.38,64.18-28.69l74.36-45.74c18.71,0,31-3.39,31,5.32v94.24a34.12,34.12,0,0,1-34,34H122.14a34.12,34.12,0,0,1-34-34V216.52"/><circle class="cls-5" cx="62.51" cy="144.41" r="13.46"/><circle class="cls-5" cx="142.75" cy="144.41" r="13.46"/><circle class="cls-5" cx="224.32" cy="225.57" r="13.46"/><circle class="cls-5" cx="306.23" cy="225.57" r="13.46"/><path class="cls-5" d="M47.56,188.54c10.65,13.27,24.57,26,40,33.31C109,232.06,131.2,225,151.1,214.44c22.14-11.74,41.79-27.55,62.67-41.29,16.64-11,36.79-24.11,57.63-19.14,17.34,4.14,32.81,18,41.16,33.54,3,5.68,11.68.63,8.64-5.05a82.12,82.12,0,0,0-32.33-32.4c-9.81-5.26-21.21-8.26-32.36-6.95-10.06,1.17-19.54,5.12-28.44,9.77-22,11.48-41.36,27.38-62,40.92-10,6.55-20.37,12.87-31.45,17.45-9.51,3.92-20.77,7.36-31.14,5.49-19.37-3.48-36.88-20.44-48.81-35.32-4-5-11.06,2.1-7.07,7.08Z"/></svg>