<?xml version="1.0" encoding="utf-8"?>
<!-- Generator: Adobe Illustrator 24.0.2, SVG Export Plug-In . SVG Version: 6.00 Build 0)  -->
<svg version="1.1" id="Capa_1" xmlns="http://www.w3.org/2000/svg" xmlns:xlink="http://www.w3.org/1999/xlink" x="0px" y="0px"
	 viewBox="0 0 283.46 283.46" style="enable-background:new 0 0 283.46 283.46;" xml:space="preserve">
<style type="text/css">
	.st0{fill:#FFFFFF;}
</style>
<g>
	<path class="st0" d="M79.93,154.94c-0.8,11.13-1.78,20.55-2.05,30c-0.15,5.25,0.51,10.6,1.49,15.77c0.54,2.85-0.03,4.49-1.97,6.48
		c-6.44,6.6-7.73,14.63-4.45,22.94c3.23,8.19,9.69,12.85,18.69,13.29c9.16,0.45,15.99-3.6,20.27-11.6
		c7.23-13.5-1.95-29.84-17.74-31.17c-3.91-0.33-4.95-1.71-5.28-5.16c-1.31-13.79-0.65-27.38,3.15-40.78
		c0.84-2.95,2.26-4.78,5.37-5.66c30.16-8.62,60.23-8.64,90.29,0.53c2.97,0.91,4.08,2.5,4.67,5.48c2.2,11.09,0.86,21.98-0.81,32.75
		c-0.6,0.26-0.9,0.51-1.17,0.48c-17.54-1.6-28.01,7.89-35.16,22.48c-1.37,2.79-2.57,5.69-3.5,8.65c-1.17,3.7-2.3,7.02-5.77,9.63
		c-4.36,3.28-4.3,10.08-0.75,14.31c3.5,4.16,9.94,5.02,14.38,1.9c4.63-3.25,6.3-9.43,2.93-14c-2.36-3.2-2.25-5.95-0.69-8.95
		c2.92-5.63,5.47-11.6,9.29-16.58c5.52-7.2,13.41-8.47,21.97-6.05c8.29,2.34,13.88,7.72,14.92,16.17
		c0.84,6.85,0.02,13.92-0.41,20.88c-0.08,1.29-1.57,2.9-2.83,3.63c-5.77,3.37-7.93,9.12-5.17,14.6c2.71,5.39,8.87,7.47,14.31,4.83
		c5.42-2.63,7.2-8.78,4.69-14.85c-0.76-1.83-0.94-4.17-0.58-6.13c2.09-11.55,3.02-23.15-2.86-33.76c-2.53-4.56-7.21-7.92-10.84-11.9
		c-0.93-1.02-2.32-2.34-2.25-3.45c0.68-10.98,1.62-21.95,2.53-33.35c2.93,1.6,6.51,3.32,9.85,5.42
		c16.04,10.09,28.83,22.86,33.36,42.04c0.96,4.05,1.3,8.32,1.35,12.5c0.16,14.81,0.1,29.62,0.05,44.44
		c-0.04,11.74-6.8,18.66-18.55,18.67c-59.23,0.06-118.47,0.06-177.7,0c-11.74-0.01-18.48-6.95-18.52-18.71
		c-0.04-13.57,0.38-27.14-0.1-40.69c-0.76-21.08,8.06-37.45,23.95-50.31C64.81,164.36,72.24,160.12,79.93,154.94z"/>
	<path class="st0" d="M200.35,67.81c-0.29,32.28-27.01,58.52-59.14,58.07c-32.39-0.45-58.3-26.93-57.98-59.25
		c0.32-32.35,26.94-58.44,59.15-57.99C174.87,9.09,200.64,35.39,200.35,67.81z"/>
</g>
</svg>
